<svg width="1249" height="629" xmlns="http://www.w3.org/2000/svg" xmlns:xlink="http://www.w3.org/1999/xlink" overflow="hidden"><defs><clipPath id="clip0"><rect x="26" y="96" width="1249" height="629"/></clipPath></defs><g clip-path="url(#clip0)" transform="translate(-26 -96)"><rect x="576.5" y="194.5" width="127" height="83" stroke="#B0564A" stroke-width="2.66667" stroke-linejoin="round" stroke-miterlimit="10" fill="#EF7768"/><text fill="#FFFFFF" font-family="Microsoft YaHei,Microsoft YaHei_MSFontService,sans-serif" font-weight="700" font-size="21" transform="translate(586.583 244)">公告项工厂</text><path d="M466 232 570.39 232 570.39 238 466 238ZM553.901 221.909 576.344 235 553.901 248.091C552.47 248.926 550.633 248.443 549.798 247.012 548.964 245.581 549.447 243.744 550.878 242.909L568.878 232.409 568.878 237.591 550.878 227.091C549.447 226.257 548.964 224.42 549.798 222.988 550.633 221.557 552.47 221.074 553.901 221.909Z" fill="#ED7262"/><path d="M703.003 232 807.392 232.093 807.387 238.093 702.997 238ZM790.913 221.987 813.344 235.098 790.89 248.17C789.458 249.003 787.621 248.518 786.788 247.086 785.954 245.655 786.439 243.818 787.871 242.984L805.88 232.5 805.876 237.683 787.885 227.167C786.455 226.331 785.973 224.494 786.809 223.063 787.645 221.633 789.483 221.151 790.913 221.987Z" fill="#ED7262"/><path d="M198.5 339.543C198.5 326.817 208.817 316.5 221.543 316.5L1059.46 316.5C1072.18 316.5 1082.5 326.817 1082.5 339.543L1082.5 616.457C1082.5 629.183 1072.18 639.5 1059.46 639.5L221.543 639.5C208.817 639.5 198.5 629.183 198.5 616.457Z" stroke="#26818C" stroke-width="2.66667" stroke-linejoin="round" stroke-miterlimit="10" fill="#38B1BF" fill-rule="evenodd"/><text fill="#FFFFFF" font-family="Microsoft YaHei,Microsoft YaHei_MSFontService,sans-serif" font-weight="400" font-size="21" transform="translate(214.013 349)">Announce</text><path d="M334.5 398.334C334.5 390.694 340.694 384.5 348.334 384.5L515.666 384.5C523.307 384.5 529.5 390.694 529.5 398.334L529.5 453.666C529.5 461.307 523.307 467.5 515.666 467.5L348.334 467.5C340.694 467.5 334.5 461.307 334.5 453.666Z" stroke="#00458E" stroke-width="2.66667" stroke-linejoin="round" stroke-miterlimit="10" fill="#629DD1" fill-rule="evenodd"/><text fill="#FFFFFF" font-family="Microsoft YaHei,Microsoft YaHei_MSFontService,sans-serif" font-weight="400" font-size="21" transform="translate(349.332 434)">AnnounceType0<tspan font-size="24" x="122.775" y="-85">标题、作者、时间</tspan></text><rect x="328.5" y="321.5" width="127" height="39" stroke="#626262" stroke-width="2.66667" stroke-linejoin="round" stroke-miterlimit="10" fill="#878787"/><text fill="#FFFFFF" font-family="Microsoft YaHei,Microsoft YaHei_MSFontService,sans-serif" font-weight="400" font-size="21" transform="translate(342.86 349)">SetValues</text><path d="M237.5 532.5C237.5 524.768 243.768 518.5 251.5 518.5L418.5 518.5C426.232 518.5 432.5 524.768 432.5 532.5L432.5 588.5C432.5 596.232 426.232 602.5 418.5 602.5L251.5 602.5C243.768 602.5 237.5 596.232 237.5 588.5Z" stroke="#00458E" stroke-width="2.66667" stroke-linejoin="round" stroke-miterlimit="10" fill="#629DD1" fill-rule="evenodd"/><text fill="#FFFFFF" font-family="Microsoft YaHei,Microsoft YaHei_MSFontService,sans-serif" font-weight="400" font-size="21" transform="translate(252.176 568)">AnnounceType1</text><path d="M432.5 532.5C432.5 524.768 438.768 518.5 446.5 518.5L612.5 518.5C620.232 518.5 626.5 524.768 626.5 532.5L626.5 588.5C626.5 596.232 620.232 602.5 612.5 602.5L446.5 602.5C438.768 602.5 432.5 596.232 432.5 588.5Z" stroke="#00458E" stroke-width="2.66667" stroke-linejoin="round" stroke-miterlimit="10" fill="#629DD1" fill-rule="evenodd"/><text fill="#FFFFFF" font-family="Microsoft YaHei,Microsoft YaHei_MSFontService,sans-serif" font-weight="400" font-size="21" transform="translate(446.487 568)">AnnounceType2</text><path d="M434.156 467 434.156 478.666C434.156 480.323 432.812 481.666 431.156 481.666L334 481.666 337 478.666 337 512.124 331 512.124 331 478.666C331 477.009 332.343 475.666 334 475.666L431.156 475.666 428.156 478.666 428.156 467ZM347.091 495.636 334 518.078 320.909 495.636C320.074 494.205 320.557 492.368 321.988 491.533 323.419 490.698 325.256 491.182 326.091 492.613L336.591 510.613 331.409 510.613 341.909 492.613C342.743 491.182 344.58 490.698 346.012 491.533 347.443 492.368 347.926 494.205 347.091 495.636Z" fill="#656565"/><path d="M0-3 11.6656-3C13.3225-3 14.6656-1.65685 14.6656 0L14.6656 97.1557 11.6656 94.1557 45.1243 94.1557 45.1243 100.156 11.6656 100.156C10.0087 100.156 8.6656 98.8125 8.6656 97.1557L8.6656 0 11.6656 3 0 3ZM28.6359 84.0644 51.0782 97.1557 28.6359 110.247C27.2047 111.082 25.3678 110.598 24.5329 109.167 23.6981 107.736 24.1815 105.899 25.6126 105.064L43.6126 94.5644 43.6126 99.747 25.6126 89.247C24.1815 88.4122 23.6981 86.5752 24.5329 85.1441 25.3678 83.7129 27.2047 83.2295 28.6359 84.0644Z" fill="#656565" transform="matrix(1.83697e-16 1 1 -1.83697e-16 432 467)"/><path d="M660.5 449.334C660.5 441.694 666.694 435.5 674.334 435.5L840.667 435.5C848.307 435.5 854.5 441.694 854.5 449.334L854.5 504.667C854.5 512.307 848.307 518.5 840.667 518.5L674.334 518.5C666.694 518.5 660.5 512.307 660.5 504.667Z" stroke="#00458E" stroke-width="2.66667" stroke-linejoin="round" stroke-miterlimit="10" fill="#629DD1" fill-rule="evenodd"/><text fill="#FFFFFF" font-family="Microsoft YaHei,Microsoft YaHei_MSFontService,sans-serif" font-weight="400" font-size="21" transform="translate(674.611 485)">AnnounceType3<tspan font-size="24" x="-385.723" y="145">单缩略图</tspan><tspan font-size="24" x="-193.762" y="144">单缩略图</tspan></text><path d="M871.5 449.334C871.5 441.694 877.694 435.5 885.334 435.5L1051.67 435.5C1059.31 435.5 1065.5 441.694 1065.5 449.334L1065.5 504.667C1065.5 512.307 1059.31 518.5 1051.67 518.5L885.334 518.5C877.694 518.5 871.5 512.307 871.5 504.667Z" stroke="#00458E" stroke-width="2.66667" stroke-linejoin="round" stroke-miterlimit="10" fill="#629DD1" fill-rule="evenodd"/><text fill="#FFFFFF" font-family="Microsoft YaHei,Microsoft YaHei_MSFontService,sans-serif" font-weight="400" font-size="21" transform="translate(885.829 484)">AnnounceType4<tspan font-size="24" x="-163.85" y="65">单大图</tspan><tspan font-size="24" x="33.5706" y="66">多缩略图</tspan></text><path d="M640 277 640 316.344" stroke="#000000" stroke-width="6" stroke-linejoin="round" stroke-miterlimit="10" stroke-dasharray="6 6" fill="none" fill-rule="evenodd"/><text font-family="Microsoft YaHei,Microsoft YaHei_MSFontService,sans-serif" font-weight="400" font-size="24" transform="translate(354.491 244)">公告类型<tspan x="468.717" y="0">Announce</tspan><tspan x="585.883" y="0">子类实例</tspan><tspan font-weight="700" font-size="32" x="188.408" y="-107">工厂模块结构</tspan></text><path d="M28.5001 278.667C28.5001 275.261 31.261 272.5 34.6668 272.5L177.333 272.5C180.739 272.5 183.5 275.261 183.5 278.667L183.5 303.333C183.5 306.739 180.739 309.5 177.333 309.5L34.6668 309.5C31.261 309.5 28.5001 306.739 28.5001 303.333Z" stroke="#00458E" stroke-width="2.66667" stroke-linejoin="round" stroke-miterlimit="10" fill="#629DD1" fill-rule="evenodd"/><text fill="#FFFFFF" font-family="Microsoft YaHei,Microsoft YaHei_MSFontService,sans-serif" font-weight="400" font-size="21" transform="translate(39.9917 299)">LinearLayout</text><path d="M0-3 43.5996-3C45.2564-3 46.5996-1.65685 46.5996 0L46.5996 86.0588 40.5996 86.0588 40.5996 0 43.5996 3 0 3ZM56.6909 69.5704 43.5996 92.0126 30.5082 69.5704C29.6734 68.1392 30.1568 66.3022 31.588 65.4674 33.0191 64.6326 34.8561 65.116 35.6909 66.5471L46.1909 84.5471 41.0082 84.5471 51.5082 66.5471C52.3431 65.116 54.18 64.6326 55.6112 65.4674 57.0423 66.3022 57.5258 68.1392 56.6909 69.5704Z" fill="#656565" transform="matrix(1.83697e-16 1 1 -1.83697e-16 105 309)"/><path d="M0-3 27.7124-3C29.3693-3 30.7124-1.65685 30.7124 0L30.7124 40.0594 24.7124 40.0594 24.7124 0 27.7124 3 0 3ZM40.8038 23.571 27.7124 46.0133 14.6211 23.571C13.7863 22.1398 14.2697 20.3029 15.7008 19.468 17.132 18.6332 18.9689 19.1166 19.8038 20.5478L30.3038 38.5478 25.1211 38.5478 35.6211 20.5478C36.4559 19.1166 38.2929 18.6332 39.7241 19.468 41.1552 20.3029 41.6386 22.1398 40.8038 23.571Z" fill="#656565" transform="matrix(1.83697e-16 1 1 -1.83697e-16 1124 670)"/><text font-family="Microsoft YaHei,Microsoft YaHei_MSFontService,sans-serif" font-weight="400" font-size="24" transform="translate(1174.3 698)">继承自</text></g></svg>