<svg width="1185" height="597" xmlns="http://www.w3.org/2000/svg" xmlns:xlink="http://www.w3.org/1999/xlink" overflow="hidden"><defs><clipPath id="clip0"><rect x="54" y="94" width="1185" height="597"/></clipPath></defs><g clip-path="url(#clip0)" transform="translate(-54 -94)"><rect x="793.5" y="168.5" width="177" height="211" stroke="#B0564A" stroke-width="2.66667" stroke-linejoin="round" stroke-miterlimit="10" fill="#EF7768"/><text fill="#FFFFFF" font-family="Microsoft YaHei,Microsoft YaHei_MSFontService,sans-serif" font-weight="700" font-size="21" transform="translate(802.173 193)">数据批发器</text><rect x="406.5" y="292.5" width="257" height="212" stroke="#B0564A" stroke-width="2.66667" stroke-linejoin="round" stroke-miterlimit="10" fill="#EF7768"/><text fill="#FFFFFF" font-family="Microsoft YaHei,Microsoft YaHei_MSFontService,sans-serif" font-weight="700" font-size="21" transform="translate(415.16 318)">主界面</text><rect x="406.5" y="360.5" width="37" height="97" stroke="#26818C" stroke-width="2.66667" stroke-linejoin="round" stroke-miterlimit="10" fill="#38B1BF"/><text fill="#FFFFFF" font-family="Microsoft YaHei,Microsoft YaHei_MSFontService,sans-serif" font-weight="400" font-size="21" writing-mode="tb-rl" transform="translate(416.26 366)" x="8.36206" y="2.14307">屏幕事件</text><rect x="625.5" y="360.5" width="38" height="97" stroke="#26818C" stroke-width="2.66667" stroke-linejoin="round" stroke-miterlimit="10" fill="#38B1BF"/><text fill="#FFFFFF" font-family="Microsoft YaHei,Microsoft YaHei_MSFontService,sans-serif" font-weight="400" font-size="21" writing-mode="tb-rl" transform="translate(635.497 366)" x="8.36206" y="2.14307">拉取触发</text><rect x="479.5" y="466.5" width="111" height="38" stroke="#5C5C5C" stroke-width="2.66667" stroke-linejoin="round" stroke-miterlimit="10" fill="#7F7F7F"/><text fill="#FFFFFF" font-family="Microsoft YaHei,Microsoft YaHei_MSFontService,sans-serif" font-weight="400" font-size="21" transform="translate(491.411 493)">组件追加</text><path d="M443 405 618.498 405 618.498 411 443 411ZM602.009 394.909 624.451 408 602.009 421.091C600.578 421.926 598.741 421.443 597.906 420.012 597.071 418.581 597.555 416.744 598.986 415.909L616.986 405.409 616.986 410.591 598.986 400.091C597.555 399.257 597.071 397.42 597.906 395.988 598.741 394.557 600.578 394.074 602.009 394.909Z" fill="#26818C"/><rect x="1065.5" y="295.5" width="127" height="83" stroke="#B0564A" stroke-width="2.66667" stroke-linejoin="round" stroke-miterlimit="10" fill="#EF7768"/><text fill="#FFFFFF" font-family="Microsoft YaHei,Microsoft YaHei_MSFontService,sans-serif" font-weight="700" font-size="21" transform="translate(1074.94 345)">公告项工厂</text><rect x="1065.5" y="212.5" width="127" height="83" stroke="#B0564A" stroke-width="2.66667" stroke-linejoin="round" stroke-miterlimit="10" fill="#EF7768"/><text fill="#FFFFFF" font-family="Microsoft YaHei,Microsoft YaHei_MSFontService,sans-serif" font-weight="700" font-size="21" transform="translate(1074.94 261)">本地数据源</text><path d="M975.943 250.006 1065.21 250.099 1065.21 256.099 975.937 256.006ZM992.415 266.115 969.986 253 992.442 239.932C993.874 239.099 995.711 239.584 996.544 241.016 997.377 242.448 996.892 244.285 995.46 245.118L977.449 255.599 977.454 250.416 995.443 260.935C996.874 261.772 997.355 263.609 996.519 265.039 995.682 266.47 993.845 266.951 992.415 266.115Z" fill="#FF9933"/><path d="M0.0161431-2.99996 89.286-2.51958 89.2537 3.48033-0.0161431 2.99996ZM72.8523-12.6995 95.2238 0.512411 72.7114 13.4828C71.2757 14.3099 69.4414 13.8166 68.6143 12.381 67.7871 10.9454 68.2804 9.11106 69.7161 8.28393L87.7723-2.11906 87.7444 3.06354 69.8012-7.53317C68.3745-8.3757 67.901-10.2152 68.7436-11.6419 69.5861-13.0685 71.4256-13.542 72.8523-12.6995Z" fill="#629DD1" transform="matrix(1 0 0 -1 970 325.512)"/><text font-family="Microsoft YaHei,Microsoft YaHei_MSFontService,sans-serif" font-weight="400" font-size="16" transform="translate(993.874 310)">类型id</text><path d="M5.95615-2.96799 95.226-2.48762 95.1937 3.51229 5.92386 3.03192ZM22.3576 13.2118-0.013905-7.47641e-05 22.4985-12.9705C23.9341-13.7976 25.7685-13.3043 26.5956-11.8687 27.4227-10.433 26.9294-8.59872 25.4938-7.77159L7.43756 2.6314 7.46545-2.5512 25.4087 8.0455C26.8353 8.88803 27.3088 10.7276 26.4663 12.1542 25.6238 13.5808 23.7843 14.0544 22.3576 13.2118Z" fill="#629DD1" transform="matrix(1 0 0 -1 970 350.512)"/><text font-family="Microsoft YaHei,Microsoft YaHei_MSFontService,sans-serif" font-weight="400" font-size="16" transform="translate(1001.12 374)">实例</text><path d="M830.5 226.334C830.5 218.694 836.694 212.5 844.334 212.5L956.667 212.5C964.307 212.5 970.5 218.694 970.5 226.334L970.5 281.666C970.5 289.307 964.307 295.5 956.667 295.5L844.334 295.5C836.694 295.5 830.5 289.307 830.5 281.666Z" stroke="#BC6F23" stroke-width="2.66667" stroke-linejoin="round" stroke-miterlimit="10" fill="#FF9933" fill-rule="evenodd"/><text fill="#FFFFFF" font-family="Microsoft YaHei,Microsoft YaHei_MSFontService,sans-serif" font-weight="400" font-size="21" transform="translate(846.612 261)">数据迭代器</text><path d="M830.5 309.334C830.5 301.694 836.694 295.5 844.334 295.5L956.667 295.5C964.307 295.5 970.5 301.694 970.5 309.334L970.5 364.666C970.5 372.307 964.307 378.5 956.667 378.5L844.334 378.5C836.694 378.5 830.5 372.307 830.5 364.666Z" stroke="#00458E" stroke-width="2.66667" stroke-linejoin="round" stroke-miterlimit="10" fill="#629DD1" fill-rule="evenodd"/><text fill="#FFFFFF" font-family="Microsoft YaHei,Microsoft YaHei_MSFontService,sans-serif" font-weight="400" font-size="21" transform="translate(846.612 345)">数据包装器</text><rect x="1059.5" y="538.5" width="38" height="24" stroke="#B0564A" stroke-width="2.66667" stroke-linejoin="round" stroke-miterlimit="10" fill="#EF7768"/><text font-family="Microsoft YaHei,Microsoft YaHei_MSFontService,sans-serif" font-weight="400" font-size="19" transform="translate(1106.55 557)">模块</text><rect x="1059.5" y="576.5" width="15" height="24" stroke="#26818C" stroke-width="2.66667" stroke-linejoin="round" stroke-miterlimit="10" fill="#38B1BF"/><text font-family="Microsoft YaHei,Microsoft YaHei_MSFontService,sans-serif" font-weight="400" font-size="19" transform="translate(1106.55 595)">事件槽</text><rect x="1082.5" y="576.5" width="15" height="24" stroke="#5C5C5C" stroke-width="2.66667" stroke-linejoin="round" stroke-miterlimit="10" fill="#7F7F7F"/><path d="M1059.5 618.5C1059.5 616.291 1061.29 614.5 1063.5 614.5L1093.5 614.5C1095.71 614.5 1097.5 616.291 1097.5 618.5L1097.5 634.5C1097.5 636.709 1095.71 638.5 1093.5 638.5L1063.5 638.5C1061.29 638.5 1059.5 636.709 1059.5 634.5Z" stroke="#BC6F23" stroke-width="2.66667" stroke-linejoin="round" stroke-miterlimit="10" fill="#FF9933" fill-rule="evenodd"/><text font-family="Microsoft YaHei,Microsoft YaHei_MSFontService,sans-serif" font-weight="400" font-size="19" transform="translate(1106.55 632)">对象<tspan x="37.3334" y="0">/</tspan>依赖</text><path d="M1060 661 1091.86 661 1091.86 667 1060 667ZM1075.37 650.909 1097.81 664 1075.37 677.091C1073.94 677.926 1072.1 677.443 1071.27 676.012 1070.43 674.581 1070.92 672.744 1072.35 671.909L1090.35 661.409 1090.35 666.591 1072.35 656.091C1070.92 655.257 1070.43 653.42 1071.27 651.988 1072.1 650.557 1073.94 650.074 1075.37 650.909Z" fill="#26818C"/><text font-family="Microsoft YaHei,Microsoft YaHei_MSFontService,sans-serif" font-weight="400" font-size="19" transform="translate(1106.55 670)">数据流<tspan x="56" y="0">/</tspan>信息流</text><path d="M0-3 64.9884-3C66.6453-3 67.9884-1.65685 67.9884 0L67.9884 135.044 64.9884 132.044 124.037 132.044 124.037 138.044 64.9884 138.044C63.3316 138.044 61.9884 136.701 61.9884 135.044L61.9884 0 64.9884 3 0 3ZM107.548 121.953 129.991 135.044 107.548 148.136C106.117 148.971 104.28 148.487 103.445 147.056 102.611 145.625 103.094 143.788 104.525 142.953L122.525 132.453 122.525 137.636 104.525 127.136C103.094 126.301 102.611 124.464 103.445 123.033 104.28 121.602 106.117 121.118 107.548 121.953Z" fill="#ED7262" transform="matrix(1 0 0 -1 663 408.044)"/><path d="M883.968 379 883.968 610.481C883.968 612.138 882.625 613.481 880.968 613.481L534 613.481C532.343 613.481 531 612.138 531 610.481L531 509.47 537 509.47 537 610.481 534 607.481 880.968 607.481 877.968 610.481 877.968 379ZM520.909 525.958 534 503.516 547.091 525.958C547.926 527.39 547.443 529.227 546.012 530.061 544.58 530.896 542.744 530.413 541.909 528.982L531.409 510.982 536.591 510.982 526.091 528.982C525.256 530.413 523.42 530.896 521.988 530.061 520.557 529.227 520.074 527.39 520.909 525.958Z" fill="#ED7262"/><path d="M273.5 118.5 273.5 680.005" stroke="#000000" stroke-width="3" stroke-linejoin="round" stroke-miterlimit="10" stroke-dasharray="3 3" fill="none" fill-rule="evenodd"/><rect x="198.5" y="167.5" width="151" height="59" stroke="#B0564A" stroke-width="2.66667" stroke-linejoin="round" stroke-miterlimit="10" fill="#EF7768"/><text fill="#FFFFFF" font-family="Microsoft YaHei,Microsoft YaHei_MSFontService,sans-serif" font-weight="700" font-size="21" transform="translate(230.555 205)">用户信息</text><rect x="56.5001" y="323.5" width="151" height="59" stroke="#B0564A" stroke-width="2.66667" stroke-linejoin="round" stroke-miterlimit="10" fill="#EF7768"/><text fill="#FFFFFF" font-family="Microsoft YaHei,Microsoft YaHei_MSFontService,sans-serif" font-weight="700" font-size="21" transform="translate(88.7877 361)">登陆界面</text><rect x="56.5001" y="430.5" width="151" height="59" stroke="#B0564A" stroke-width="2.66667" stroke-linejoin="round" stroke-miterlimit="10" fill="#EF7768"/><text fill="#FFFFFF" font-family="Microsoft YaHei,Microsoft YaHei_MSFontService,sans-serif" font-weight="700" font-size="21" transform="translate(88.7877 468)">文章界面</text><path d="M405.507 411.874 306.253 411.874C304.596 411.874 303.253 410.531 303.253 408.874L303.253 353 306.253 356 212.94 356 212.94 350 306.253 350C307.91 350 309.253 351.343 309.253 353L309.253 408.874 306.253 405.874 405.507 405.874ZM229.428 366.091 206.986 353 229.428 339.909C230.86 339.074 232.697 339.557 233.531 340.988 234.366 342.42 233.883 344.256 232.452 345.091L214.452 355.591 214.452 350.409 232.452 360.909C233.883 361.743 234.366 363.58 233.531 365.012 232.697 366.443 230.86 366.926 229.428 366.091Z" fill="#ED7262"/><path d="M0-3 99.2533-3C100.91-3 102.253-1.65685 102.253 0L102.253 51.0688 99.2533 48.0688 192.567 48.0688 192.567 54.0688 99.2533 54.0688C97.5964 54.0688 96.2533 52.7256 96.2533 51.0688L96.2533 0 99.2533 3 0 3ZM176.078 37.9774 198.52 51.0688 176.078 64.1601C174.647 64.9949 172.81 64.5115 171.975 63.0804 171.14 61.6492 171.624 59.8123 173.055 58.9774L191.055 48.4774 191.055 53.6601 173.055 43.1601C171.624 42.3253 171.14 40.4883 171.975 39.0572 172.81 37.626 174.647 37.1426 176.078 37.9774Z" fill="#ED7262" transform="matrix(-1 1.22465e-16 1.22465e-16 1 405.507 408)"/><text font-family="Microsoft YaHei,Microsoft YaHei_MSFontService,sans-serif" font-weight="400" font-size="16" transform="translate(673.363 336)">数据批<tspan x="8" y="20">大小</tspan><tspan x="7.28717" y="259">批量数据</tspan><tspan font-weight="700" font-size="32" x="-119.821" y="-201">核心架构图</tspan></text></g></svg>